# xmcd
#
# Track frame offsets:
#	150
#	17895
#	32677
#	45875
#	58797
#	68787
#	86050
#	99992
#	118865
#	135020
#	146747
#	165880
#	190702
#	203140
#
# Disc length: 2917 seconds
#
# Revision: 1
# Processed by: cddbd v1.5.2PL0 Copyright (c) Steve Scherf et al.
# Submitted via: audiograbber 1.83.01
#
DISCID=b10b630e
DTITLE=Johnny Chester and Hotspur - Johnny Chester and Hotspur
DYEAR=2002
DGENRE=Country
TTITLE0=I Love You So Rebecca
TTITLE1=Lord I'd Forgotten
TTITLE2=I Walked Out Of Blacktown
TTITLE3=One Small Photograph Of You
TTITLE4=Honey Thank You
TTITLE5=Why Do They Doubt Our Love
TTITLE6=Simple Kind Of Fella
TTITLE7=We've Got Love On Our Side
TTITLE8=She's Been Gone, Much Too Long
TTITLE9=The Old Copper Kettle
TTITLE10=Let Go
TTITLE11=Three Rivers Hotel
TTITLE12=All On Our Own
TTITLE13=I've Never Gotten Over You
EXTD=
EXTT0=
EXTT1=
EXTT2=
EXTT3=
EXTT4=
EXTT5=
EXTT6=
EXTT7=
EXTT8=
EXTT9=
EXTT10=
EXTT11=
EXTT12=
EXTT13=
PLAYORDER=
